<?xml version="1.0" encoding="utf-8"?>
<!-- Generator: Adobe Illustrator 21.1.0, SVG Export Plug-In . SVG Version: 6.00 Build 0)  -->
<svg version="1.1" id="menu" xmlns="http://www.w3.org/2000/svg" xmlns:xlink="http://www.w3.org/1999/xlink" x="0px" y="0px"
	 viewBox="0 0 410 76.3" style="enable-background:new 0 0 410 76.3;" xml:space="preserve">
<style type="text/css">
	.st0{fill:#353535;}
</style>
<title>findmore_logo</title>
<polygon class="st0" points="233.9,65 238.9,70 258.7,50.1 253.6,45.1 "/>
<polygon class="st0" points="5,50.3 12,50.3 12,31.5 36.7,31.5 36.7,25.2 12,25.2 12,14.3 47.6,14.3 47.6,8 5,8 "/>
<rect x="54.4" y="8" class="st0" width="7" height="42.3"/>
<polygon class="st0" points="111.7,42.7 79.4,8 70.8,8 70.8,50.3 77.8,50.3 77.8,15.6 110,50.3 118.7,50.3 118.7,8 111.7,8 "/>
<path class="st0" d="M172.3,13.9C168,10,162.2,8,154.8,8h-26.7v42.3h28.1c5.8,0.2,11.4-1.8,15.8-5.6c4.4-3.7,6.9-9.2,6.8-15
	C178.8,23,176.6,17.8,172.3,13.9z M167.1,39.9c-2.7,2.7-6.4,4.2-10.3,4.1h-21.7V14.3h20.3c4.7,0,8.5,1.4,11.4,4.2
	c2.9,2.9,4.5,6.9,4.3,11C171.2,33.4,169.8,37.1,167.1,39.9z"/>
<polygon class="st0" points="236.6,15.7 236.6,50.3 243.6,50.3 243.6,8 234.9,8 214.5,33.5 194.3,8 185.5,8 185.5,50.3 192.5,50.3 
	192.5,15.7 192.7,15.7 214.5,43.3 236.4,15.7 "/>
<path class="st0" d="M350.8,30c2.1-2.3,3.2-5.4,3.1-8.6c0-4.1-1.3-7.3-3.8-9.7s-6-3.6-10.5-3.7h-33.3v42.3h7V34.2h21.3L346,50.3h8.1
	l-11.2-16.5C345.9,33.5,348.7,32.1,350.8,30z M313.3,27.9V14.3H338c5.9,0,8.8,2.3,8.8,7c0,4.7-2.7,6.8-8.1,6.5h-25.4V27.9z"/>
<polygon class="st0" points="367.8,44 367.8,31.5 392.5,31.5 392.5,25.2 367.8,25.2 367.8,14.3 403.4,14.3 403.4,8 360.8,8 
	360.8,50.3 405,50.3 405,44 "/>
<path class="st0" d="M275,4.3c-13.6,0-24.6,11-24.6,24.6s11,24.6,24.6,24.6s24.6-11,24.6-24.6S288.6,4.3,275,4.3
	C275,4.3,275,4.3,275,4.3z M275,46.4c-9.7,0-17.5-7.8-17.5-17.5s7.8-17.5,17.5-17.5s17.5,7.8,17.5,17.5S284.7,46.4,275,46.4
	C275,46.4,275,46.4,275,46.4z"/>
<polygon class="st0" points="276.8,20.2 273.1,20.2 273.1,27 266.3,27 266.3,30.7 273.1,30.7 273.1,37.6 276.8,37.6 276.8,30.7 
	283.7,30.7 283.7,27 276.8,27 "/>
<path class="st0" d="M269.5,62c1.1-0.9,2.4-1.4,3.8-1.3c1.8-0.1,3.6,0.6,4.8,2l1.7-0.7c-2.7-3.6-7.9-4.3-11.5-1.6c0,0,0,0,0,0
	c-2.7,2.3-3.1,6.3-0.8,9c0.2,0.3,0.5,0.5,0.8,0.8c1.4,1.1,3.2,1.7,5,1.6c1.3,0,2.5-0.2,3.7-0.7c1.1-0.5,2.1-1.3,2.8-2.3l-1.6-1
	c-1.2,1.3-2.9,2.1-4.7,2c-1.5,0.1-2.9-0.4-4-1.3C267.7,66.7,267.7,63.8,269.5,62z"/>
<path class="st0" d="M293.9,60.5c-1.4-1.2-3.2-1.8-5-1.7c-1.8,0-3.6,0.6-5,1.7c-2.7,2.3-3.1,6.3-0.8,9c0.2,0.3,0.5,0.5,0.8,0.8
	c3,2.2,7,2.2,10,0c2.7-2.3,3.1-6.3,0.8-9C294.4,61,294.2,60.7,293.9,60.5z M292.8,68.8c-1.1,0.9-2.5,1.4-3.9,1.3
	c-1.4,0.1-2.8-0.4-3.9-1.3c-1.9-1.7-2-4.6-0.3-6.5c0.1-0.1,0.2-0.2,0.3-0.3c2.2-1.7,5.2-1.8,7.5-0.2c2,1.6,2.4,4.5,0.8,6.5
	C293.1,68.5,293,68.6,292.8,68.8z"/>
<polygon class="st0" points="309.7,69.4 301.1,59.2 298.7,59.2 298.7,71.6 300.6,71.6 300.6,61.5 309.3,71.6 311.6,71.6 311.6,59.2 
	309.7,59.2 "/>
<path class="st0" d="M323,64.3l-3.1-0.3c-0.8,0-1.6-0.2-2.3-0.4c-0.6-0.1-1-0.6-1-1.2c0-0.5,0.4-1,0.9-1.2c0.9-0.3,1.8-0.5,2.7-0.4
	c1.8,0,3.5,0.5,5.1,1.4l1.1-1.4c-1.8-1.2-3.9-1.9-6.1-1.8c-1.5-0.1-2.9,0.3-4.2,1c-1,0.6-1.5,1.7-1.5,2.8c-0.1,1,0.4,1.9,1.3,2.4
	c1.2,0.5,2.6,0.8,3.9,0.8l3.9,0.4c0.8,0.1,1.4,0.8,1.4,1.6c0,0.7-0.4,1.3-1,1.6c-1,0.5-2,0.7-3.1,0.6c-2,0-4-0.6-5.7-1.8l-1,1.5
	c1.9,1.5,4.4,2.3,6.8,2.1c1.6,0.1,3.2-0.3,4.6-1.1c1-0.7,1.7-1.9,1.6-3.1c0.1-0.9-0.3-1.8-1-2.4C325.3,64.7,324.2,64.4,323,64.3z"/>
<path class="st0" d="M340.7,67.1c0,0.9-0.4,1.7-1.2,2.2c-1,0.6-2.2,0.9-3.4,0.8c-1.2,0.1-2.4-0.2-3.4-0.8c-0.8-0.5-1.2-1.3-1.2-2.2
	v-7.9h-1.9v8.4c0,1.3,0.6,2.4,1.7,3.1c1.4,0.9,3,1.4,4.7,1.3c1.7,0.1,3.3-0.4,4.7-1.3c1.1-0.7,1.7-1.8,1.7-3.1v-8.4h-1.9v7.9H340.7z
	"/>
<polygon class="st0" points="347.7,59.2 345.8,59.2 345.8,71.6 356.4,71.6 356.4,69.8 347.7,69.8 "/>
<polygon class="st0" points="354.5,61.1 359.9,61.1 359.9,71.6 361.8,71.6 361.8,61.1 367.2,61.1 367.2,59.2 354.5,59.2 "/>
<rect x="369.8" y="59.2" class="st0" width="1.9" height="12.4"/>
<polygon class="st0" points="385.9,69.4 377.2,59.2 374.9,59.2 374.9,71.6 376.8,71.6 376.8,61.5 385.4,71.6 387.8,71.6 387.8,59.2 
	385.9,59.2 "/>
<path class="st0" d="M397.2,65.1v1.8h5.3c-0.8,2.1-2.4,3.2-4.9,3.2c-1.4,0.1-2.8-0.4-3.9-1.3c-1.9-1.7-2-4.6-0.2-6.5
	c0.1-0.1,0.3-0.3,0.4-0.4c1-0.8,2.3-1.2,3.6-1.2c1.7,0,3.4,0.7,4.5,2.1l1.8-1c-1.4-1.9-3.7-3-6.1-3c-1.8-0.1-3.7,0.5-5.1,1.7
	c-2.7,2.3-3.1,6.3-0.8,9c0.2,0.3,0.5,0.5,0.8,0.8c1.4,1.1,3.2,1.7,5,1.7c1.9,0.1,3.9-0.6,5.3-1.9c1.3-1.3,2.1-3.1,2-4.9v-0.1H397.2
	L397.2,65.1z"/>
</svg>
